<svg xmlns="http://www.w3.org/2000/svg" width="1383" height="1344" viewBox="0 0 1383 1344">
  <rect width="100%" height="100%" fill="#631b27"/>
<path d="M 1026 901 L 1018 893 L 1003 890 L 959 890 L 918 893 L 864 892 L 816 894 L 797 892 L 749 893 L 737 896 L 729 904 L 729 1009 L 730 1016 L 733 1022 L 739 1027 L 746 1029 L 770 1028 L 797 1021 L 804 1021 L 805 1024 L 798 1034 L 790 1038 L 771 1042 L 757 1048 L 745 1049 L 735 1052 L 729 1061 L 729 1067 L 737 1073 L 752 1074 L 775 1072 L 805 1066 L 828 1060 L 891 1038 L 913 1029 L 982 988 L 1010 966 L 1014 960 L 1013 953 L 1003 954 L 961 976 L 956 976 L 954 974 L 954 966 L 957 963 L 961 962 L 990 945 L 1020 920 L 1027 908 Z M 927 980 L 927 985 L 920 993 L 911 999 L 909 999 L 902 1003 L 900 1003 L 895 1006 L 887 1008 L 884 1010 L 881 1010 L 873 1014 L 870 1014 L 869 1015 L 852 1020 L 849 1022 L 844 1022 L 840 1018 L 839 1011 L 841 1009 L 843 1009 L 846 1007 L 848 1007 L 858 1003 L 861 1003 L 862 1002 L 870 1000 L 873 998 L 887 994 L 890 992 L 906 987 L 909 985 L 911 985 L 916 982 L 921 981 L 924 979 L 926 979 Z M 991 914 L 991 917 L 987 922 L 966 936 L 950 944 L 948 944 L 946 946 L 944 946 L 939 949 L 932 951 L 927 954 L 922 955 L 912 960 L 898 964 L 895 966 L 892 966 L 889 968 L 886 968 L 885 969 L 868 974 L 865 976 L 863 976 L 859 978 L 856 978 L 853 980 L 851 980 L 847 982 L 844 982 L 840 984 L 836 984 L 832 986 L 821 988 L 817 990 L 814 990 L 813 991 L 810 991 L 802 994 L 799 994 L 794 996 L 790 996 L 785 998 L 773 999 L 772 1000 L 759 1000 L 757 999 L 754 995 L 754 983 L 753 982 L 753 974 L 754 973 L 754 935 L 755 934 L 755 926 L 756 925 L 756 923 L 761 919 L 769 918 L 770 917 L 848 917 L 849 916 L 870 916 L 871 915 L 947 914 L 948 913 L 961 913 L 962 912 L 971 912 L 972 911 L 985 911 L 986 912 L 989 912 Z M 1051 865 L 1050 864 L 1050 860 L 1049 858 L 1045 855 L 1041 855 L 1040 854 L 1023 854 L 1022 853 L 1013 853 L 1012 852 L 969 852 L 968 853 L 943 854 L 942 855 L 909 855 L 908 854 L 873 854 L 872 855 L 805 854 L 804 855 L 795 855 L 794 856 L 755 856 L 754 857 L 741 859 L 737 861 L 732 866 L 730 870 L 730 873 L 731 874 L 731 876 L 734 879 L 739 881 L 744 881 L 745 882 L 757 882 L 758 881 L 782 881 L 783 880 L 866 881 L 867 880 L 878 880 L 879 879 L 916 879 L 917 880 L 945 880 L 946 879 L 1007 879 L 1008 880 L 1032 880 L 1033 879 L 1042 879 L 1043 878 L 1047 878 L 1049 877 L 1051 872 Z M 363 717 L 359 722 L 360 756 L 358 770 L 358 795 L 362 821 L 365 829 L 375 841 L 385 845 L 457 845 L 462 850 L 462 858 L 458 870 L 452 876 L 445 879 L 392 881 L 372 884 L 359 889 L 350 897 L 345 906 L 344 916 L 347 927 L 353 940 L 363 949 L 372 965 L 380 973 L 400 984 L 416 985 L 423 978 L 422 970 L 409 951 L 398 941 L 390 930 L 388 924 L 389 917 L 397 912 L 423 910 L 444 910 L 456 913 L 460 920 L 460 943 L 463 953 L 463 971 L 460 984 L 461 1008 L 466 1019 L 474 1027 L 481 1030 L 493 1030 L 498 1026 L 502 1012 L 502 947 L 504 941 L 502 897 L 505 872 L 505 835 L 501 818 L 498 814 L 492 811 L 481 809 L 430 810 L 403 807 L 397 801 L 394 791 L 396 717 L 391 712 L 378 711 Z M 654 710 L 645 714 L 641 721 L 641 745 L 638 756 L 639 793 L 638 799 L 634 804 L 625 808 L 611 810 L 541 811 L 536 813 L 529 822 L 528 861 L 525 886 L 528 942 L 526 967 L 526 1027 L 529 1042 L 542 1054 L 552 1054 L 563 1048 L 566 1038 L 564 1015 L 566 982 L 564 918 L 574 914 L 617 914 L 631 916 L 635 921 L 637 930 L 635 978 L 638 994 L 638 1012 L 634 1049 L 635 1065 L 638 1073 L 643 1078 L 651 1081 L 661 1081 L 667 1078 L 671 1073 L 674 1063 L 672 958 L 676 889 L 668 882 L 629 879 L 614 880 L 601 884 L 573 883 L 568 876 L 568 857 L 570 850 L 573 847 L 649 842 L 659 834 L 665 832 L 673 823 L 680 791 L 680 747 L 678 726 L 675 718 L 670 712 L 665 710 Z M 727 723 L 727 821 L 734 833 L 740 837 L 753 840 L 837 841 L 849 839 L 1042 838 L 1054 834 L 1068 823 L 1081 791 L 1085 764 L 1085 731 L 1080 718 L 1076 715 L 1058 714 L 1050 718 L 1046 733 L 1043 764 L 1026 760 L 1001 759 L 996 755 L 997 749 L 1004 742 L 1033 739 L 1040 730 L 1040 725 L 1034 720 L 1023 717 L 1009 716 L 1002 719 L 998 717 L 998 702 L 1001 699 L 1011 698 L 1027 701 L 1031 697 L 1033 686 L 1023 680 L 998 680 L 992 669 L 987 666 L 981 666 L 975 678 L 958 683 L 933 682 L 931 684 L 930 697 L 932 699 L 970 699 L 974 703 L 974 712 L 967 719 L 948 720 L 928 726 L 923 725 L 919 688 L 913 684 L 904 683 L 894 686 L 879 676 L 869 676 L 862 679 L 844 678 L 839 675 L 833 664 L 826 663 L 821 667 L 816 682 L 810 686 L 790 683 L 769 685 L 764 691 L 764 700 L 767 704 L 802 704 L 811 707 L 816 712 L 816 717 L 810 721 L 784 724 L 773 728 L 765 736 L 767 748 L 774 752 L 795 746 L 810 747 L 815 759 L 812 764 L 806 767 L 770 767 L 761 771 L 761 731 L 758 722 L 748 717 L 737 716 L 731 718 Z M 760 791 L 761 790 L 764 790 L 765 791 L 773 791 L 774 790 L 781 790 L 782 789 L 799 789 L 800 790 L 803 790 L 806 792 L 811 798 L 811 801 L 812 802 L 812 810 L 809 812 L 804 812 L 803 813 L 799 813 L 798 814 L 790 814 L 789 815 L 772 816 L 770 815 L 762 806 L 761 799 L 760 798 Z M 1038 788 L 1038 801 L 1037 802 L 1037 804 L 1031 810 L 1029 811 L 1021 811 L 1020 812 L 1003 812 L 999 810 L 999 808 L 998 807 L 998 796 L 997 795 L 997 789 L 998 788 L 1032 788 L 1033 787 L 1037 787 Z M 918 787 L 920 785 L 922 785 L 923 786 L 929 786 L 930 785 L 936 785 L 937 784 L 958 784 L 959 785 L 964 785 L 968 787 L 970 790 L 970 798 L 969 799 L 969 803 L 967 807 L 963 811 L 958 812 L 957 813 L 932 813 L 931 812 L 924 812 L 923 811 L 921 811 L 919 809 L 919 807 L 918 806 Z M 891 784 L 891 794 L 890 795 L 889 804 L 887 808 L 882 812 L 879 812 L 878 813 L 849 813 L 848 812 L 846 812 L 840 805 L 840 797 L 842 792 L 846 788 L 850 786 L 852 786 L 853 785 L 867 785 L 868 784 L 883 784 L 884 783 L 890 783 Z M 971 746 L 971 752 L 970 754 L 963 760 L 956 761 L 955 762 L 932 762 L 931 763 L 927 763 L 926 764 L 921 764 L 920 763 L 920 751 L 923 748 L 933 746 L 934 745 L 937 745 L 938 744 L 941 744 L 942 743 L 945 743 L 946 742 L 965 742 L 966 743 L 968 743 Z M 891 697 L 892 698 L 892 708 L 891 709 L 891 720 L 890 721 L 890 760 L 889 761 L 887 761 L 886 760 L 859 760 L 858 761 L 845 761 L 841 757 L 841 750 L 846 745 L 851 744 L 852 743 L 858 743 L 859 742 L 879 742 L 881 740 L 884 739 L 886 736 L 886 726 L 881 720 L 876 719 L 875 718 L 871 718 L 870 719 L 859 719 L 858 720 L 848 720 L 847 719 L 845 719 L 842 715 L 843 708 L 848 705 L 859 704 L 860 703 L 870 703 L 880 698 L 883 698 L 884 697 Z M 620 676 L 616 672 L 604 667 L 587 666 L 586 665 L 569 665 L 568 666 L 562 666 L 561 665 L 556 665 L 551 663 L 514 664 L 513 665 L 507 665 L 506 666 L 502 666 L 501 667 L 459 666 L 458 667 L 451 667 L 450 668 L 440 669 L 424 675 L 422 677 L 419 678 L 415 683 L 414 691 L 413 692 L 412 707 L 411 708 L 411 718 L 412 719 L 412 725 L 413 726 L 413 740 L 412 741 L 412 749 L 413 750 L 413 769 L 412 770 L 412 776 L 416 784 L 428 794 L 433 795 L 436 797 L 445 797 L 446 796 L 451 796 L 452 795 L 471 795 L 476 797 L 521 797 L 522 796 L 529 796 L 530 795 L 554 795 L 555 794 L 568 794 L 569 793 L 603 793 L 604 792 L 608 792 L 609 791 L 615 790 L 617 788 L 620 781 L 626 774 L 626 772 L 627 771 L 627 754 L 628 753 L 628 722 L 626 718 L 627 703 L 626 702 L 626 697 L 624 692 L 623 684 Z M 450 763 L 450 761 L 452 759 L 455 759 L 456 758 L 464 758 L 465 757 L 473 757 L 474 756 L 486 756 L 487 755 L 508 755 L 509 754 L 593 754 L 594 755 L 594 760 L 587 766 L 584 766 L 583 767 L 575 767 L 574 768 L 561 768 L 560 769 L 463 770 L 462 769 L 457 769 L 455 768 Z M 593 723 L 593 730 L 590 733 L 583 734 L 582 735 L 563 735 L 562 736 L 545 736 L 544 737 L 521 737 L 520 738 L 494 738 L 493 739 L 468 739 L 467 740 L 454 740 L 452 738 L 452 734 L 456 729 L 459 727 L 465 727 L 466 726 L 495 725 L 496 724 L 549 723 L 550 722 L 578 722 L 579 721 L 591 721 Z M 452 701 L 452 697 L 455 694 L 463 693 L 464 692 L 469 692 L 470 691 L 487 691 L 488 690 L 502 690 L 503 689 L 561 689 L 562 690 L 574 690 L 575 691 L 595 691 L 596 692 L 596 698 L 595 699 L 595 702 L 593 704 L 513 704 L 512 705 L 475 705 L 474 706 L 456 706 Z M 700 626 L 697 626 L 693 629 L 683 629 L 681 630 L 681 632 L 680 633 L 675 633 L 673 634 L 666 642 L 667 648 L 666 649 L 662 649 L 662 654 L 660 658 L 660 665 L 662 668 L 662 675 L 664 680 L 666 682 L 674 682 L 675 683 L 675 688 L 676 690 L 680 693 L 682 693 L 686 695 L 694 695 L 695 696 L 697 696 L 698 695 L 706 695 L 713 692 L 715 690 L 718 689 L 725 682 L 725 677 L 726 676 L 729 676 L 729 674 L 731 670 L 731 660 L 730 659 L 731 652 L 726 642 L 723 638 L 715 631 L 709 632 L 705 628 Z M 542 535 L 536 545 L 535 551 L 533 555 L 533 560 L 532 561 L 532 566 L 531 567 L 531 580 L 530 581 L 530 589 L 532 592 L 532 598 L 533 599 L 533 611 L 534 612 L 534 615 L 541 623 L 552 629 L 567 628 L 568 627 L 590 627 L 591 628 L 597 628 L 598 629 L 604 629 L 605 630 L 622 630 L 623 629 L 626 629 L 631 627 L 636 627 L 637 626 L 646 625 L 652 621 L 657 611 L 658 602 L 659 601 L 659 596 L 660 595 L 660 587 L 661 586 L 661 561 L 660 560 L 660 555 L 659 554 L 659 551 L 658 550 L 657 545 L 654 540 L 648 534 L 643 534 L 642 533 L 638 533 L 637 532 L 602 532 L 597 530 L 571 530 L 570 531 L 557 531 L 556 530 L 549 530 Z M 636 576 L 636 586 L 635 588 L 629 594 L 624 596 L 619 596 L 618 597 L 607 597 L 606 598 L 599 598 L 598 597 L 576 597 L 575 596 L 571 596 L 565 590 L 565 588 L 564 587 L 564 577 L 565 576 L 565 573 L 566 571 L 573 565 L 596 565 L 597 564 L 602 564 L 603 563 L 617 563 L 618 564 L 622 564 L 623 565 L 628 566 L 631 568 L 635 573 L 635 575 Z M 635 405 L 581 400 L 435 401 L 410 404 L 399 413 L 396 420 L 398 456 L 404 466 L 438 474 L 441 477 L 438 485 L 433 488 L 316 488 L 303 491 L 296 497 L 294 509 L 302 515 L 432 518 L 426 531 L 347 533 L 327 543 L 328 551 L 334 559 L 387 560 L 388 563 L 348 600 L 319 648 L 303 690 L 289 753 L 291 803 L 295 818 L 303 830 L 311 831 L 313 827 L 312 767 L 320 724 L 353 650 L 388 605 L 435 558 L 477 558 L 486 565 L 488 571 L 485 584 L 474 593 L 449 590 L 442 593 L 440 609 L 444 616 L 459 624 L 482 627 L 496 619 L 508 602 L 512 553 L 507 539 L 496 530 L 456 531 L 456 516 L 595 515 L 610 512 L 670 514 L 683 511 L 696 503 L 700 492 L 694 485 L 617 484 L 604 478 L 603 469 L 608 462 L 630 461 L 639 453 L 641 418 Z M 579 472 L 579 477 L 575 482 L 565 486 L 555 486 L 554 487 L 536 487 L 535 488 L 489 488 L 488 487 L 483 487 L 482 486 L 479 486 L 478 485 L 473 484 L 468 481 L 466 478 L 466 472 L 467 471 L 467 467 L 468 466 L 501 467 L 502 466 L 512 466 L 513 465 L 523 464 L 524 463 L 535 463 L 536 464 L 568 464 L 576 469 Z M 608 431 L 608 434 L 602 440 L 597 441 L 596 442 L 592 442 L 591 441 L 492 441 L 491 440 L 457 440 L 453 442 L 444 442 L 439 440 L 434 440 L 430 436 L 430 434 L 434 430 L 436 430 L 437 429 L 444 429 L 445 430 L 461 430 L 462 429 L 497 429 L 498 428 L 504 428 L 505 429 L 507 429 L 508 428 L 540 428 L 541 427 L 566 427 L 567 428 L 599 428 L 600 427 L 605 427 Z M 907 359 L 903 364 L 900 375 L 901 425 L 900 426 L 899 448 L 898 449 L 899 452 L 899 497 L 900 498 L 900 502 L 899 503 L 899 533 L 900 534 L 901 546 L 902 547 L 902 567 L 901 568 L 900 593 L 901 594 L 901 598 L 904 604 L 912 608 L 922 609 L 923 610 L 931 610 L 932 611 L 964 612 L 965 613 L 998 613 L 999 612 L 1019 612 L 1020 611 L 1028 611 L 1036 609 L 1066 609 L 1067 608 L 1076 608 L 1093 603 L 1095 601 L 1097 589 L 1098 588 L 1098 576 L 1097 575 L 1097 570 L 1093 554 L 1085 529 L 1082 524 L 1079 515 L 1068 495 L 1067 490 L 1063 483 L 1063 481 L 1056 470 L 1048 461 L 1041 444 L 1029 430 L 1020 416 L 1003 399 L 991 390 L 979 377 L 962 366 L 946 359 L 931 355 L 918 355 L 917 356 L 913 356 Z M 940 399 L 942 398 L 948 399 L 952 401 L 964 410 L 998 444 L 998 445 L 1002 449 L 1014 467 L 1017 474 L 1021 479 L 1022 482 L 1031 495 L 1034 501 L 1034 503 L 1044 523 L 1046 525 L 1048 530 L 1052 535 L 1056 543 L 1056 545 L 1058 548 L 1058 552 L 1059 553 L 1059 562 L 1063 573 L 1063 577 L 1059 580 L 1054 580 L 1053 581 L 1041 581 L 1040 582 L 1034 582 L 1033 583 L 1027 583 L 1026 584 L 990 584 L 989 583 L 979 583 L 978 582 L 968 582 L 967 581 L 948 581 L 947 580 L 942 579 L 939 576 L 938 574 L 938 569 L 937 568 L 937 552 L 936 551 L 936 542 L 935 541 L 934 528 L 933 527 L 933 501 L 934 500 L 934 492 L 935 491 L 935 467 L 934 466 L 935 406 L 936 405 L 936 403 Z M 740 284 L 728 292 L 725 309 L 739 318 L 780 328 L 795 343 L 797 365 L 793 387 L 786 395 L 745 394 L 734 399 L 725 408 L 724 414 L 728 429 L 740 433 L 738 441 L 737 522 L 738 597 L 743 602 L 756 603 L 762 599 L 767 589 L 770 435 L 779 434 L 785 439 L 788 446 L 791 483 L 791 540 L 784 607 L 792 630 L 800 637 L 807 637 L 825 623 L 830 613 L 830 478 L 836 449 L 845 436 L 848 437 L 845 514 L 847 526 L 845 556 L 847 594 L 854 604 L 866 605 L 874 598 L 877 590 L 879 545 L 877 431 L 886 431 L 890 427 L 894 401 L 892 395 L 884 391 L 834 392 L 831 389 L 827 369 L 829 348 L 834 340 L 861 344 L 880 343 L 890 336 L 891 326 L 884 317 L 875 311 L 832 295 L 781 283 Z M 395 339 L 396 350 L 400 355 L 404 357 L 495 357 L 499 360 L 498 364 L 492 366 L 452 365 L 420 367 L 403 370 L 395 378 L 395 389 L 397 392 L 401 394 L 422 394 L 440 391 L 512 392 L 530 390 L 541 390 L 556 393 L 591 391 L 638 392 L 642 390 L 644 374 L 636 370 L 625 368 L 555 365 L 551 363 L 543 363 L 542 359 L 546 356 L 588 357 L 597 360 L 611 360 L 632 356 L 647 355 L 650 352 L 653 345 L 651 331 L 648 328 L 571 327 L 559 329 L 544 329 L 542 327 L 541 303 L 538 290 L 535 285 L 520 280 L 513 280 L 508 282 L 503 289 L 499 302 L 500 314 L 498 327 L 496 329 L 449 328 L 427 329 L 420 331 L 405 330 L 399 333 Z M 486 258 L 467 272 L 405 302 L 381 320 L 335 365 L 307 400 L 249 496 L 233 550 L 233 565 L 221 590 L 224 614 L 212 622 L 215 638 L 208 657 L 216 671 L 220 694 L 214 717 L 219 777 L 271 885 L 302 931 L 303 942 L 325 957 L 333 973 L 347 987 L 391 1014 L 394 1034 L 427 1042 L 437 1053 L 469 1071 L 523 1088 L 533 1095 L 558 1097 L 568 1105 L 631 1110 L 657 1106 L 710 1109 L 802 1099 L 889 1076 L 978 1029 L 1041 972 L 1075 935 L 1083 911 L 1094 902 L 1100 885 L 1108 881 L 1120 857 L 1134 801 L 1148 784 L 1143 760 L 1159 681 L 1152 646 L 1149 562 L 1138 540 L 1137 520 L 1130 501 L 1081 406 L 1057 389 L 1034 362 L 976 326 L 979 320 L 976 312 L 943 297 L 936 287 L 915 274 L 782 236 L 740 240 L 723 232 L 692 234 L 627 229 L 534 244 L 494 259 Z M 488 269 L 495 270 L 525 257 L 638 239 L 693 245 L 723 243 L 740 251 L 778 246 L 831 263 L 851 263 L 907 282 L 927 294 L 934 304 L 965 317 L 965 329 L 973 338 L 1025 369 L 1048 396 L 1071 412 L 1115 494 L 1125 519 L 1127 541 L 1138 565 L 1136 590 L 1142 605 L 1142 658 L 1148 682 L 1132 758 L 1136 780 L 1123 799 L 1110 852 L 1090 879 L 1085 895 L 1075 902 L 1066 928 L 1033 964 L 970 1021 L 885 1066 L 802 1088 L 775 1088 L 713 1098 L 577 1095 L 562 1087 L 538 1084 L 469 1059 L 446 1045 L 439 1034 L 412 1026 L 392 999 L 357 980 L 343 967 L 330 944 L 299 910 L 266 851 L 230 772 L 228 727 L 232 698 L 221 653 L 233 625 L 233 591 L 245 567 L 245 551 L 258 505 L 274 473 L 286 460 L 292 445 L 301 438 L 313 410 L 351 369 L 356 353 L 371 346 L 411 311 L 472 282 Z M 487 185 L 431 208 L 388 242 L 361 253 L 320 304 L 292 318 L 285 332 L 261 349 L 257 370 L 231 393 L 186 483 L 145 613 L 144 735 L 154 777 L 177 842 L 231 936 L 260 1004 L 288 1016 L 317 1056 L 426 1135 L 475 1156 L 557 1178 L 656 1186 L 796 1186 L 849 1174 L 873 1161 L 898 1160 L 933 1141 L 976 1130 L 986 1108 L 1013 1093 L 1032 1070 L 1043 1069 L 1065 1034 L 1111 1002 L 1125 971 L 1145 954 L 1189 863 L 1230 735 L 1237 653 L 1217 585 L 1217 524 L 1201 476 L 1175 421 L 1147 378 L 1114 353 L 1105 325 L 1096 314 L 1071 300 L 1053 276 L 1005 239 L 926 197 L 824 168 L 689 155 L 592 160 Z M 682 176 L 703 181 L 804 185 L 886 203 L 902 224 L 966 245 L 1048 308 L 1159 434 L 1180 518 L 1193 545 L 1205 558 L 1203 610 L 1209 625 L 1206 659 L 1223 670 L 1205 701 L 1209 726 L 1206 752 L 1176 854 L 1159 893 L 1148 907 L 1149 928 L 1133 938 L 1105 982 L 1043 1036 L 1028 1056 L 1018 1058 L 995 1077 L 870 1136 L 815 1147 L 788 1165 L 703 1158 L 659 1158 L 638 1164 L 568 1161 L 537 1152 L 526 1143 L 488 1137 L 486 1125 L 476 1118 L 422 1105 L 352 1070 L 262 972 L 243 936 L 224 913 L 220 890 L 209 873 L 193 817 L 180 796 L 177 738 L 161 687 L 170 657 L 169 588 L 173 568 L 181 559 L 182 539 L 191 527 L 193 496 L 230 431 L 230 416 L 247 405 L 278 361 L 351 294 L 437 246 L 542 207 L 582 201 L 616 189 L 668 186 Z" fill="#b7714d" fill-rule="evenodd"/>
</svg>
